<svg width="30" height="20" viewBox="0 0 30 20" fill="none" xmlns="http://www.w3.org/2000/svg">
<g filter="url(#filter0_d_302_68)">
<path d="M5.66671 0.666656C4.93033 0.666656 4.33337 1.26361 4.33337 1.99999C4.33337 2.73637 4.93033 3.33332 5.66671 3.33332H24.3334C25.0698 3.33332 25.6667 2.73637 25.6667 1.99999C25.6667 1.26361 25.0698 0.666656 24.3334 0.666656H5.66671Z" fill="#23262F"/>
<path d="M5.66671 8.66666C4.93033 8.66666 4.33337 9.26361 4.33337 9.99999C4.33337 10.7364 4.93033 11.3333 5.66671 11.3333H24.3334C25.0698 11.3333 25.6667 10.7364 25.6667 9.99999C25.6667 9.26361 25.0698 8.66666 24.3334 8.66666H5.66671Z" fill="#23262F"/>
</g>
<defs>
<filter id="filter0_d_302_68" x="0.333374" y="0.666656" width="29.3334" height="18.6667" filterUnits="userSpaceOnUse" color-interpolation-filters="sRGB">
<feFlood flood-opacity="0" result="BackgroundImageFix"/>
<feColorMatrix in="SourceAlpha" type="matrix" values="0 0 0 0 0 0 0 0 0 0 0 0 0 0 0 0 0 0 127 0" result="hardAlpha"/>
<feOffset dy="4"/>
<feGaussianBlur stdDeviation="2"/>
<feComposite in2="hardAlpha" operator="out"/>
<feColorMatrix type="matrix" values="0 0 0 0 0 0 0 0 0 0 0 0 0 0 0 0 0 0 0.25 0"/>
<feBlend mode="normal" in2="BackgroundImageFix" result="effect1_dropShadow_302_68"/>
<feBlend mode="normal" in="SourceGraphic" in2="effect1_dropShadow_302_68" result="shape"/>
</filter>
</defs>
</svg>
